<svg xmlns="http://www.w3.org/2000/svg" width="100" height="100" viewBox="0 0 100 100">
	<g id="Grupo_7" data-name="Grupo 7" transform="translate(-2045.009 -645)">
		<path id="Caminho_6" data-name="Caminho 6"
			d="M78.27,47.838a30.254,30.254,0,0,1-6.649-2.4v3.3a30.086,30.086,0,0,0,6.5,2.668,24.852,24.852,0,0,0,13.827.014,30.243,30.243,0,0,0,6.5-2.682v-3.3a29.273,29.273,0,0,1-20.179,2.4"
			transform="translate(2010 645)" fill="#003087" />
		<g id="Grupo_5" data-name="Grupo 5">
			<path id="Caminho_3" data-name="Caminho 3"
				d="M85.009,100a50,50,0,1,1,50-50,50.056,50.056,0,0,1-50,50m0-95.652A45.652,45.652,0,1,0,130.661,50,45.7,45.7,0,0,0,85.009,4.348"
				transform="translate(2010 645)" fill="#003087" />
			<path id="Caminho_4" data-name="Caminho 4"
				d="M96.8,23.819H62.348v31.1a9.67,9.67,0,0,0,9.659,9.66h1.866l11.761,11.6L97.4,64.581h10.275V34.688A10.882,10.882,0,0,0,96.8,23.819m6.522,36.414H95.612l-9.978,9.842-9.977-9.842h-3.65A5.317,5.317,0,0,1,66.7,54.921V28.167H96.8a6.528,6.528,0,0,1,6.522,6.521Z"
				transform="translate(2010 645)" fill="#003087" />
			<path id="Caminho_5" data-name="Caminho 5"
				d="M78.737,42.149a2.761,2.761,0,0,0,1.953-4.714,2.828,2.828,0,0,0-3.9,0,2.761,2.761,0,0,0,1.952,4.714"
				transform="translate(2010 645)" fill="#003087" />
			<path id="Caminho_7" data-name="Caminho 7"
				d="M91.292,42.149a2.761,2.761,0,0,0,1.953-4.714,2.828,2.828,0,0,0-3.905,0,2.761,2.761,0,0,0,1.952,4.714"
				transform="translate(2010 645)" fill="#003087" />
		</g>
	</g>
</svg>