<svg xmlns="http://www.w3.org/2000/svg" width="100" height="100" viewBox="0 0 100 100">
	<g id="Grupo_4" data-name="Grupo 4" transform="translate(-1811.339 -645)">
		<path id="Caminho_19" data-name="Caminho 19"
			d="M75.339,100a50,50,0,1,1,50-50,50.057,50.057,0,0,1-50,50m0-95.652A45.652,45.652,0,1,0,120.991,50,45.7,45.7,0,0,0,75.339,4.348"
			transform="translate(1786 645)" fill="#003087" />
		<path id="Caminho_20" data-name="Caminho 20"
			d="M104.789,52.828,94.114,32.65l3.149-1.666,3.165,5.983,3.843-2.034-5.2-9.825L88.238,30.839,89.86,33.9c-.541.25-1.165.549-1.968.95-3.057-2.077-11.5-6.747-19.232-1.268a15.565,15.565,0,0,0-2.125,2.095L63.37,35.37l-1.865-1.291,1.6-2.772L57.78,28.229a6.106,6.106,0,0,0-8.341,2.236L48,32.962l3.766,2.174,1.442-2.5a1.756,1.756,0,0,1,2.4-.643l1.56.9L45.45,53.191l3.766,2.174L59.324,37.857l2.5,1.729.964.1-5.261,5.452L60.406,47.9a7.6,7.6,0,0,0,10.625-.068l2.542-2.778L75.029,43.3l18.858,12.43A1,1,0,1,1,92.794,57.4L90.7,56.036l0,.006-6.2-4-2.356,3.653,5.6,3.614,0,.005,1.008.661a.7.7,0,0,1,.308.451.713.713,0,0,1-.554.847.717.717,0,0,1-.539-.1l-1.834-1.2-.014.021-5.264-3.4-2.361,3.652,6.219,4.016-.005.008a.693.693,0,0,1-.751,1.164l-5.318-3.945-2.59,3.492L79.709,67.7l0,.005a.684.684,0,0,1,.3.439.7.7,0,0,1-.1.524.693.693,0,0,1-.959.2L54.389,53.284l-2.318,3.679L72.182,69.639,76.564,72.5a5.042,5.042,0,0,0,6.978-1.455,5.065,5.065,0,0,0,.553-1.191c.072,0,.143.03.215.03a5.045,5.045,0,0,0,4.229-2.28,4.981,4.981,0,0,0,.759-2.07c.03-.005.06,0,.091-.009a4.951,4.951,0,0,0,3.83-3.632c.037,0,.074.017.112.017a5.307,5.307,0,0,0,5.279-6.11ZM77.12,39.478l-2.8-2.114L70.3,42.188l-2.41,2.632a3.163,3.163,0,0,1-4.2.188l5.2-5.394a23.836,23.836,0,0,1,2.287-2.48c6.729-4.769,14.8,1.669,15.13,1.942l1.1.9,1.267-.645c1.087-.554,2.348-1.171,3.227-1.575l6.938,13.113L96.279,52.1l-.01-.008Z"
			transform="translate(1786 645)" fill="#003087" />
	</g>
</svg>