<svg xmlns="http://www.w3.org/2000/svg" width="100" height="100" viewBox="0 0 100 100">
	<g id="Grupo_6" data-name="Grupo 6" transform="translate(-2305.737 -645)">
		<path id="Caminho_13" data-name="Caminho 13"
			d="M345.737,100a50,50,0,1,1,50-50,50.056,50.056,0,0,1-50,50m0-95.652A45.652,45.652,0,1,0,391.389,50,45.7,45.7,0,0,0,345.737,4.348"
			transform="translate(2010 645)" fill="#003087" />
		<path id="Caminho_14" data-name="Caminho 14"
			d="M365.446,36.788H342.431l-8.371,9.126V68.949a5.638,5.638,0,0,0,5.632,5.632h1.658V70.234h-1.658a1.286,1.286,0,0,1-1.284-1.285V49.587h19.921V70.234H345.738v4.347H361.86l9.218-9.935V42.421a5.639,5.639,0,0,0-5.632-5.633m-5.8,8.451H340.579l3.762-4.1h19.682Zm7.085,3.887V62.939l-4.053,4.368V48.354l4.053-3.8Z"
			transform="translate(2010 645)" fill="#003087" />
		<path id="Caminho_15" data-name="Caminho 15"
			d="M326.462,54.481a16.9,16.9,0,1,1,26.86-20.141l3.757-2.187a21.254,21.254,0,1,0-34.508,24.506l-1.442-.162-.484,4.321L330.81,61.96V51.841h-4.348Z"
			transform="translate(2010 645)" fill="#003087" />
	</g>
</svg>