<svg width="128" height="27" viewBox="0 0 128 27" fill="none" xmlns="http://www.w3.org/2000/svg">
	<path
		d="M122.097 0C125.474 0 127.674 2.21721 127.674 5.59685V20.4672C127.674 23.8598 125.461 26.0641 122.097 26.0641H5.57699C2.20077 26.0641 0 23.8469 0 20.4672V5.59685C0 2.21721 2.21364 0 5.57699 0H122.097ZM55.8257 13.7295C55.8333 14.9282 56.1942 16.0978 56.8628 17.0911C57.5314 18.0844 58.4779 18.857 59.5831 19.3116C60.6884 19.7662 61.9029 19.8825 63.0738 19.6459C64.2448 19.4092 65.3198 18.8301 66.1635 17.9816C67.0072 17.1331 67.5819 16.0531 67.8153 14.8775C68.0486 13.7018 67.9302 12.4832 67.4749 11.375C67.0195 10.2668 66.2477 9.31858 65.2565 8.64968C64.2653 7.98079 63.0991 7.62114 61.9046 7.61602C61.1025 7.60616 60.3065 7.75765 59.5637 8.06155C58.8209 8.36546 58.1463 8.81561 57.5797 9.38545C57.0131 9.95529 56.5659 10.6333 56.2647 11.3794C55.9634 12.1255 55.8142 12.9246 55.8257 13.7295ZM49.1762 18.6074L51.8102 11.6242L52.7669 18.7236C52.7792 18.8503 52.8165 18.9734 52.8766 19.0855C52.9367 19.1977 53.0185 19.2967 53.1171 19.3768C53.2157 19.4569 53.3292 19.5166 53.451 19.5523C53.5728 19.5879 53.7005 19.599 53.8265 19.5847H55.1736L53.3546 7.82267H51.3083L48.2667 15.8132L45.2294 7.82267H43.1659L41.3298 19.589H43.5391L44.6159 11.5166L47.0055 17.7592C47.0681 18.0116 47.2152 18.2348 47.4221 18.3915C47.629 18.5482 47.8832 18.629 48.1423 18.6203L49.1762 18.6074ZM28.344 11.5812C28.344 9.26063 26.7352 7.82697 24.5087 7.82697H20.592V18.6892C20.592 19.3091 20.8665 19.589 21.4886 19.589H22.7756V15.2493H24.2899L26.169 18.9173C26.2588 19.1343 26.4156 19.3167 26.6164 19.4376C26.8172 19.5585 27.0513 19.6115 27.2844 19.589H29.0433L26.362 14.823C26.9683 14.5315 27.4778 14.0705 27.8294 13.4954C28.1809 12.9203 28.3596 12.2557 28.344 11.5812ZM95.4953 7.82697V18.6892C95.4953 19.3091 95.7698 19.589 96.3833 19.589H97.6188V11.409L102.707 18.771C102.843 19.0225 103.046 19.2318 103.292 19.376C103.539 19.5202 103.82 19.5939 104.105 19.589H105.358V7.82697H103.213V16.1448L97.5716 7.82697H95.4953ZM69.425 7.82697V18.6892C69.425 19.3091 69.6995 19.589 70.3216 19.589H71.5571V11.409L76.6407 18.771C76.7771 19.0225 76.9796 19.2318 77.2261 19.376C77.4727 19.5202 77.7539 19.5939 78.0393 19.589H79.2919V7.82697H77.1469V16.1448L71.5056 7.82697H69.425ZM38.0608 18.7882C38.1165 19.024 38.2523 19.233 38.4449 19.3791C38.6375 19.5253 38.8749 19.5995 39.1162 19.589H40.6949L36.1775 7.82697H33.951L29.4637 19.589H31.746L32.6554 17.0058H37.4087L38.0608 18.8011V18.7882ZM115.208 18.7882C115.263 19.0232 115.398 19.2316 115.59 19.3777C115.782 19.5238 116.018 19.5985 116.259 19.589H117.838L113.32 7.82697H111.111L106.606 19.589H108.901L109.811 17.0058H114.543L115.195 18.8011L115.208 18.7882ZM58.1981 13.7166C58.1812 13.2212 58.2639 12.7274 58.4411 12.2647C58.6184 11.802 58.8867 11.3799 59.2299 11.0235C59.5732 10.667 59.9844 10.3835 60.4392 10.1899C60.8939 9.99634 61.3828 9.89657 61.8767 9.89657C62.3707 9.89657 62.8596 9.99634 63.3143 10.1899C63.769 10.3835 64.1802 10.667 64.5235 11.0235C64.8668 11.3799 65.135 11.802 65.3123 12.2647C65.4896 12.7274 65.5723 13.2212 65.5554 13.7166C65.5723 14.212 65.4896 14.7058 65.3123 15.1684C65.135 15.6311 64.8668 16.0532 64.5235 16.4097C64.1802 16.7661 63.769 17.0496 63.3143 17.2432C62.8596 17.4368 62.3707 17.5366 61.8767 17.5366C61.3828 17.5366 60.8939 17.4368 60.4392 17.2432C59.9844 17.0496 59.5732 16.7661 59.2299 16.4097C58.8867 16.0532 58.6184 15.6311 58.4411 15.1684C58.2639 14.7058 58.1812 14.212 58.1981 13.7166ZM83.938 9.93225V18.6892C83.938 19.3091 84.2126 19.589 84.8346 19.589H86.2289V9.93225H89.4635V7.82697H80.6862V9.04106C80.6862 9.65671 80.965 9.93656 81.5828 9.93656L83.938 9.93225ZM13.6679 9.93225V18.6892C13.6679 19.3091 13.9468 19.589 14.5645 19.589H15.9588V9.93225H19.1934V7.82697H10.4161V9.04106C10.4161 9.65671 10.695 9.93656 11.3127 9.93656L13.6679 9.93225ZM93.2645 7.82697H90.9479V18.6892C90.9479 19.3091 91.2224 19.589 91.8402 19.589H93.2516V7.82697H93.2645ZM22.7842 9.85045H24.3157C25.1437 9.85045 26.0832 10.2422 26.0832 11.5726C26.0832 12.9029 25.1437 13.2516 24.3157 13.2516H22.7842V9.85045ZM112.183 10.3542L113.822 14.9393H110.54L112.183 10.3542ZM35.0364 10.3542L36.6794 14.9393H33.3976L35.0364 10.3542Z"
		fill="#003087" />
</svg>