<svg width="52" height="71" viewBox="0 0 52 71" fill="none" xmlns="http://www.w3.org/2000/svg">
	<path fill-rule="evenodd" clip-rule="evenodd"
		d="M7.39572 0H44.5067C46.3072 0.00332923 48.0333 0.728694 49.3076 2.01758C50.5819 3.30647 51.3009 5.05407 51.3075 6.8785V44.4826C51.3042 46.3093 50.5866 48.0601 49.312 49.3517C48.0373 50.6433 46.3094 51.3704 44.5067 51.3738H7.39572C5.59522 51.3671 3.87053 50.6385 2.59854 49.3473C1.32656 48.056 0.610707 46.3071 0.607422 44.4826V6.8785C0.613997 5.05626 1.3313 3.31055 2.60293 2.02203C3.87456 0.733499 5.59737 0.00666274 7.39572 0ZM29.5949 15.9065H38.8914V9.3062H13.1233V13.3777C13.1233 15.0467 13.922 15.9065 15.7189 15.9065H22.4198V41.1951C22.4198 42.9274 23.2184 43.7872 25.0153 43.7872H29.5949V15.9065ZM40.3389 65.2572C40.3389 61.6536 42.7348 59.7064 45.1431 59.7064C47.7137 59.7064 49.9349 61.603 49.9598 65.0928C49.9598 65.7251 49.6728 65.94 49.1612 65.94H43.5209C42.9594 65.94 43.0343 66.5975 43.0343 66.5975C43.1019 67.1606 43.365 67.6809 43.7765 68.0654C44.188 68.4499 44.7211 68.6736 45.2804 68.6965C45.6795 68.7001 46.0736 68.6067 46.4297 68.4241C46.7857 68.2415 47.0934 67.975 47.3269 67.647C47.4061 67.5348 47.5112 67.4439 47.633 67.3822C47.7547 67.3205 47.8895 67.2898 48.0257 67.293H49.2486C49.548 67.293 49.6853 67.5079 49.548 67.8999C49.2251 68.8036 48.6205 69.5761 47.8258 70.1008C47.0311 70.6255 46.0894 70.8738 45.1431 70.8081C42.7348 70.8081 40.3389 68.8609 40.3389 65.2572ZM43.5334 64.1319H46.7778C47.1522 64.1319 47.277 63.8158 47.1771 63.4491C47.0825 62.9798 46.8256 62.5601 46.4527 62.2657C46.0798 61.9713 45.6154 61.8215 45.1431 61.8433C44.6803 61.8429 44.2298 61.9942 43.8588 62.2744C43.4877 62.5547 43.216 62.949 43.0842 63.3985C43.0093 63.6261 42.9344 64.1319 43.5334 64.1319ZM7.46786 61.603C6.48206 61.603 5.85814 62.0582 5.85814 62.6146C5.85814 63.4708 7.00073 63.7173 8.33066 64.0041C10.1822 64.4035 12.3969 64.8812 12.3969 67.1918C12.3969 69.6195 10.3878 70.8081 7.5053 70.8081C5.03456 70.8081 2.81339 69.5436 2.81339 67.4447C2.81339 67.2297 3.00057 67.1286 3.26261 67.1286H4.8349C5.13439 67.1286 5.34652 67.2171 5.42139 67.432C5.59259 67.9003 5.91182 68.2981 6.32937 68.5634C6.74692 68.8287 7.23933 68.9466 7.72991 68.8988C8.79058 68.8988 9.52681 68.3804 9.52681 67.5458C9.52681 66.6443 8.34453 66.3622 6.98351 66.0375C5.13769 65.5972 2.96313 65.0784 2.96313 62.8295C2.96313 60.9708 4.78499 59.7064 7.44291 59.7064C10.1008 59.7064 12.0225 60.8064 12.0225 62.5893C12.0225 62.8295 11.8478 63.0192 11.5109 63.0192H9.78886C9.53929 63.0192 9.41451 62.8422 9.3022 62.5893C9.12419 62.262 8.85586 61.9944 8.53006 61.8192C8.20427 61.644 7.83514 61.5689 7.46786 61.603ZM18.826 68.608H19.3252C19.6496 68.608 19.7869 68.8482 19.8118 69.177V70.2644C19.8118 70.5805 19.6745 70.8081 19.3252 70.8081H17.2038C16.8528 70.81 16.5053 70.737 16.1841 70.5936C15.8629 70.4502 15.5751 70.2398 15.3396 69.9761C15.104 69.7124 14.9261 69.4013 14.8172 69.0631C14.7084 68.725 14.6713 68.3674 14.7081 68.0137V62.741C14.7081 62.3617 14.5584 62.0203 14.1591 62.0203H13.4603C13.1483 62.0203 12.9362 61.8559 12.9362 61.5524V60.5283C12.9362 60.2627 13.1733 60.111 13.4603 60.111H14.1591C14.5334 60.111 14.6956 59.896 14.6956 59.5167V57.4178C14.6966 57.3666 14.7709 57.2264 14.8219 57.1303C14.8404 57.0954 14.8559 57.0663 14.8636 57.0494C14.9014 57.0154 15.0534 56.9757 15.1577 56.9485C15.1956 56.9386 15.2272 56.9304 15.2447 56.9246H17.104C17.1534 56.9193 17.2961 56.9777 17.3942 57.0178C17.4299 57.0324 17.4596 57.0445 17.4768 57.0503C17.5132 57.0846 17.5635 57.232 17.598 57.3333C17.6106 57.3701 17.6211 57.4008 17.6281 57.4178V59.5167C17.6246 59.5946 17.637 59.6724 17.6645 59.7452C17.692 59.8181 17.7339 59.8844 17.7877 59.9401C17.8416 59.9959 17.9061 60.0398 17.9774 60.0692C18.0487 60.0986 18.1252 60.1128 18.2021 60.111H19.3252C19.6246 60.111 19.8243 60.2754 19.8243 60.5283V61.5524C19.8259 61.6003 19.7612 61.7335 19.7167 61.8249C19.7005 61.8582 19.687 61.886 19.6804 61.9021C19.6457 61.9346 19.5039 61.972 19.4065 61.9977C19.3711 62.007 19.3415 62.0148 19.3252 62.0203H18.2146C17.8527 62.0203 17.6406 62.349 17.6406 62.8042V67.255C17.6406 68.2033 18.0399 68.608 18.826 68.608ZM21.9685 61.3321C22.9958 60.2911 24.3892 59.7063 25.8421 59.7063C27.2949 59.7063 28.6883 60.2911 29.7156 61.3321C30.743 62.3731 31.3201 63.785 31.3201 65.2571C31.3201 66.7293 30.743 68.1412 29.7156 69.1822C28.6883 70.2232 27.2949 70.808 25.8421 70.808C24.3892 70.808 22.9958 70.2232 21.9685 69.1822C20.9412 68.1412 20.364 66.7293 20.364 65.2571C20.364 63.785 20.9412 62.3731 21.9685 61.3321ZM23.259 65.2571C23.259 67.5458 24.407 68.709 25.8421 68.709C27.2896 68.709 28.4376 67.609 28.4376 65.2824C28.4376 62.9559 27.2521 61.8432 25.8421 61.8432C24.432 61.8432 23.259 62.9685 23.259 65.2571ZM40.3263 60.0263C40.3434 60.0866 40.3477 60.1499 40.3388 60.2121L40.3264 61.9191C40.3264 62.2225 40.2141 62.3995 40.0269 62.3995H38.8913C38.1573 62.4917 37.4872 62.8686 37.0218 63.451C36.5563 64.0334 36.3319 64.776 36.3956 65.5227V70.0872C36.3956 70.6183 36.1461 70.8333 35.6345 70.8333H34.2244C33.7377 70.8333 33.4882 70.631 33.4882 70.0872V60.3638C33.4844 60.2953 33.4951 60.2268 33.5197 60.1628C33.5442 60.0989 33.582 60.041 33.6305 59.993C33.6789 59.9451 33.737 59.9083 33.8007 59.885C33.8644 59.8617 33.9323 59.8525 33.9998 59.858H35.7343C36.0338 59.858 36.2334 60.0351 36.2334 60.3638C36.2334 60.3638 36.3083 61.1225 36.3457 61.2363C36.3832 61.3501 36.5703 61.3627 36.6951 61.2363C37.0726 60.7397 37.5617 60.3418 38.1217 60.0757C38.6818 59.8095 39.2965 59.6829 39.9146 59.7063C39.9765 59.7075 40.0375 59.722 40.0935 59.7488C40.1495 59.7757 40.1992 59.8143 40.2394 59.8622C40.2795 59.91 40.3091 59.966 40.3263 60.0263Z"
		fill="black" />
</svg>