<svg xmlns="http://www.w3.org/2000/svg" width="300" height="300" viewBox="0 0 300 300">
	<g id="Grupo_1" data-name="Grupo 1" transform="translate(-775 -356)">
		<g id="Elipse_1" data-name="Elipse 1" transform="translate(775 356)" fill="#003087" stroke="#707070"
			stroke-width="1">
			<circle cx="150" cy="150" r="150" stroke="none" />
			<circle cx="150" cy="150" r="149.5" fill="none" />
		</g>
		<path id="Caminho_1" data-name="Caminho 1"
			d="M158.108,201.43l2.772,7.862a98.9,98.9,0,0,0,17.594-8.908l-4.168-7.222A91.989,91.989,0,0,1,158.108,201.43ZM112.276,102c.262-.184.523-.378.775-.572a15.988,15.988,0,0,0,2.54-23.342l-8.482-9.742a16.04,16.04,0,0,0-12.863-5.5A15.809,15.809,0,0,0,82.1,69.422c-4.944,6.873-7.658,13.668-8.065,20.2-.562,8.967,3.054,21.51,9.674,33.56,7.619,13.862,18.515,25.766,30.68,33.521,12.127,7.726,23.827,11.642,34.587,11.642A40.249,40.249,0,0,0,165,165.118,17.511,17.511,0,0,0,175.247,152.5a17.794,17.794,0,0,0-4.595-15.9l-7.319-7.639a12.941,12.941,0,0,0-18.04-.7,11.742,11.742,0,0,1-7.794,3.325c-9.054.223-22.131-11.07-24.467-16.528l-.417-.969c-3.2-7.416-3.606-9.752-.339-12.088Zm-1.134-12.611a7.624,7.624,0,0,1-3.063,5.351c-.223.165-.446.32-.659.485-9.2,6.572-5.3,15.587-2.462,22.169l.407.95c3.267,7.619,19.184,21.985,32.377,21.578a20.122,20.122,0,0,0,13.212-5.535,4.556,4.556,0,0,1,6.349.349l7.319,7.639a9.388,9.388,0,0,1,2.443,8.472,9.045,9.045,0,0,1-5.361,6.621c-11.991,5.138-26.8,2.443-42.846-7.784C94.886,134.4,81.431,104.717,82.342,90.157c.31-4.934,2.5-10.275,6.514-15.859a7.49,7.49,0,0,1,5.768-3.112h.368a7.662,7.662,0,0,1,5.816,2.646l8.482,9.742a7.526,7.526,0,0,1,1.832,5.826ZM124.83,16A100,100,0,0,0,42.763,173.154L25.4,227.7a4.16,4.16,0,0,0,3.974,5.428,4.374,4.374,0,0,0,1.357-.223l63.232-21.772a100.142,100.142,0,0,0,55.894,1.716l-2.792-7.9A91.6,91.6,0,0,1,95.274,202.8a4.169,4.169,0,0,0-2.7,0L35.842,222.32l15.471-48.633a4.179,4.179,0,0,0-.6-3.722,91.686,91.686,0,1,1,140.529,9.141l4.333,7.5A99.959,99.959,0,0,0,124.81,16Z"
			transform="translate(800.18 381)" fill="#fff" />
	</g>
</svg>